<svg width="30" height="29" viewBox="0 0 30 29" fill="none" xmlns="http://www.w3.org/2000/svg">
<path d="M13.8169 20.6669H9.13007C7.57628 20.6669 6.08612 20.0496 4.98742 18.9509C3.88873 17.8522 3.27148 16.3621 3.27148 14.8083C3.27148 13.2545 3.88873 11.7643 4.98742 10.6656C6.08612 9.56695 7.57628 8.94971 9.13007 8.94971H13.8169V11.2931H9.13007C8.19779 11.2931 7.3037 11.6635 6.64448 12.3227C5.98526 12.9819 5.61492 13.876 5.61492 14.8083C5.61492 15.7406 5.98526 16.6347 6.64448 17.2939C7.3037 17.9531 8.19779 18.3234 9.13007 18.3234H13.8169V20.6669ZM20.8472 8.94971H16.1604V11.2931H20.8472C21.7795 11.2931 22.6736 11.6635 23.3328 12.3227C23.992 12.9819 24.3624 13.876 24.3624 14.8083C24.3624 15.7406 23.992 16.6347 23.3328 17.2939C22.6736 17.9531 21.7795 18.3234 20.8472 18.3234H16.1604V20.6669H20.8472C22.401 20.6669 23.8912 20.0496 24.9899 18.9509C26.0886 17.8522 26.7058 16.3621 26.7058 14.8083C26.7058 13.2545 26.0886 11.7643 24.9899 10.6656C23.8912 9.56695 22.401 8.94971 20.8472 8.94971ZM19.6755 13.6366H10.3018V15.98H19.6755V13.6366Z" fill="black"/>
</svg>
