<svg width="29" height="29" viewBox="0 0 29 29" fill="none" xmlns="http://www.w3.org/2000/svg">
<path d="M18.6168 14.5736C19.1905 14.2243 19.6747 13.7457 20.0307 13.1761C20.3867 12.6065 20.6047 11.9616 20.6673 11.2928C20.6782 10.6881 20.5698 10.0871 20.3484 9.52427C20.1269 8.96142 19.7968 8.44771 19.3768 8.01247C18.9568 7.57724 18.4552 7.22901 17.9006 6.98767C17.3459 6.74634 16.7492 6.61663 16.1445 6.60596H8.54004V23.01H16.7421C17.3175 23.0039 17.8862 22.8845 18.4155 22.6586C18.9449 22.4327 19.4245 22.1047 19.8271 21.6934C20.2297 21.2821 20.5473 20.7956 20.7618 20.2615C20.9764 19.7275 21.0836 19.1564 21.0774 18.5809V18.4403C21.0778 17.6284 20.8465 16.8333 20.4106 16.1484C19.9747 15.4634 19.3524 14.9171 18.6168 14.5736V14.5736ZM10.8835 8.94939H15.8047C16.304 8.93394 16.7962 9.07158 17.2151 9.34385C17.6339 9.61613 17.9595 10.01 18.1481 10.4726C18.339 11.091 18.2772 11.7599 17.9764 12.3329C17.6756 12.906 17.1602 13.3366 16.5429 13.5308C16.3031 13.6011 16.0545 13.6366 15.8047 13.6363H10.8835V8.94939ZM16.2734 20.6666H10.8835V15.9797H16.2734C16.7727 15.9642 17.2649 16.1019 17.6837 16.3742C18.1026 16.6464 18.4282 17.0403 18.6168 17.5029C18.8076 18.1213 18.7459 18.7902 18.4451 19.3632C18.1443 19.9363 17.6289 20.3669 17.0116 20.5611C16.7718 20.6314 16.5232 20.6669 16.2734 20.6666V20.6666Z" fill="black"/>
</svg>
