<svg width="29" height="29" viewBox="0 0 29 29" fill="none" xmlns="http://www.w3.org/2000/svg">
<path d="M16.8096 13.6366L21.2621 19.4952H7.20152L10.7167 14.9255L13.1773 18.0891L16.5753 13.6366H16.8096ZM10.1308 13.6366C11.0682 13.6366 11.8884 12.8164 11.8884 11.879C11.8884 10.9416 11.0682 10.1214 10.1308 10.1214C9.19344 10.1214 8.37323 10.9416 8.37323 11.879C8.37323 12.8164 9.19344 13.6366 10.1308 13.6366ZM25.949 7.778V21.8386C25.949 23.1275 24.8944 24.182 23.6056 24.182H4.85808C3.56919 24.182 2.51465 23.1275 2.51465 21.8386V7.778C2.51465 6.48912 3.56919 5.43457 4.85808 5.43457H23.6056C24.8944 5.43457 25.949 6.48912 25.949 7.778ZM23.6056 11.0588V7.778H4.85808V21.8386H23.6056V11.0588Z" fill="black"/>
</svg>
