<svg width="30" height="29" viewBox="0 0 30 29" fill="none" xmlns="http://www.w3.org/2000/svg">
<path d="M14.7682 11.2928H17.1116L14.5339 23.01H12.1904L14.7682 11.2928ZM16.7367 6.60596C16.5049 6.60596 16.2784 6.67468 16.0857 6.80343C15.893 6.93218 15.7429 7.11517 15.6542 7.32928C15.5655 7.54338 15.5423 7.77897 15.5875 8.00626C15.6327 8.23356 15.7443 8.44234 15.9082 8.6062C16.072 8.77007 16.2808 8.88167 16.5081 8.92688C16.7354 8.97209 16.971 8.94888 17.1851 8.8602C17.3992 8.77152 17.5822 8.62133 17.7109 8.42865C17.8397 8.23596 17.9084 8.00942 17.9084 7.77767C17.9084 7.46692 17.785 7.16888 17.5652 6.94915C17.3455 6.72941 17.0475 6.60596 16.7367 6.60596Z" fill="black"/>
</svg>
