<svg width="29" height="29" viewBox="0 0 29 29" fill="none" xmlns="http://www.w3.org/2000/svg">
<path d="M14.4636 4.26271C12.3784 4.26479 10.3406 4.88504 8.60776 6.04506C6.87496 7.20508 5.52496 8.85278 4.72842 10.7799C3.93187 12.707 3.72454 14.827 4.13263 16.8719C4.54072 18.9169 5.54591 20.7949 7.02114 22.2686C8.49636 23.7424 10.3754 24.7457 12.4207 25.1518C14.4661 25.5578 16.5859 25.3483 18.5122 24.5499C20.4385 23.7514 22.0848 22.3998 23.2431 20.6658C24.4014 18.9318 25.0196 16.8934 25.0196 14.8082C25.0203 13.4222 24.7477 12.0498 24.2173 10.7693C23.6869 9.48891 22.9092 8.32565 21.9287 7.34614C20.9482 6.36663 19.7842 5.59011 18.5032 5.06101C17.2223 4.53191 15.8496 4.26064 14.4636 4.26271ZM14.4742 23.0102C12.852 23.0102 11.2662 22.5291 9.91737 21.6279C8.56856 20.7266 7.51728 19.4457 6.89649 17.9469C6.2757 16.4482 6.11327 14.7991 6.42975 13.208C6.74623 11.617 7.52739 10.1555 8.67447 9.00846C9.82154 7.86138 11.283 7.08022 12.874 6.76374C14.4651 6.44726 16.1142 6.60969 17.6129 7.23048C19.1117 7.85127 20.3927 8.90255 21.2939 10.2514C22.1952 11.6002 22.6762 13.186 22.6762 14.8082C22.6765 15.8854 22.4645 16.952 22.0525 17.9473C21.6404 18.9425 21.0362 19.8468 20.2745 20.6085C19.5128 21.3702 18.6085 21.9744 17.6133 22.3864C16.618 22.7985 15.5514 23.0105 14.4742 23.0102ZM18.1124 16.9173H19.8734C19.4498 18.0046 18.7077 18.9387 17.7443 19.5973C16.7809 20.2558 15.6411 20.6082 14.4742 20.6082C13.3072 20.6082 12.1674 20.2558 11.204 19.5973C10.2407 18.9387 9.49856 18.0046 9.0749 16.9173H10.836C11.203 17.5581 11.7327 18.0906 12.3715 18.4609C13.0104 18.8313 13.7357 19.0263 14.4742 19.0263C15.2126 19.0263 15.938 18.8313 16.5768 18.4609C17.2157 18.0906 17.7454 17.5581 18.1124 16.9173ZM9.20144 12.1718C9.20144 11.8589 9.29421 11.5531 9.46803 11.293C9.64184 11.0329 9.88889 10.8301 10.1779 10.7104C10.467 10.5907 10.785 10.5593 11.0919 10.6204C11.3987 10.6814 11.6806 10.8321 11.9018 11.0533C12.123 11.2745 12.2737 11.5564 12.3347 11.8632C12.3957 12.17 12.3644 12.4881 12.2447 12.7771C12.1249 13.0662 11.9222 13.3132 11.6621 13.487C11.4019 13.6608 11.0961 13.7536 10.7833 13.7536C10.3637 13.7536 9.96139 13.587 9.66475 13.2903C9.3681 12.9937 9.20144 12.5913 9.20144 12.1718ZM16.5833 12.1718C16.5833 11.8589 16.676 11.5531 16.8498 11.293C17.0237 11.0329 17.2707 10.8301 17.5597 10.7104C17.8488 10.5907 18.1668 10.5593 18.4737 10.6204C18.7805 10.6814 19.0624 10.8321 19.2836 11.0533C19.5048 11.2745 19.6555 11.5564 19.7165 11.8632C19.7775 12.17 19.7462 12.4881 19.6265 12.7771C19.5068 13.0662 19.304 13.3132 19.0439 13.487C18.7838 13.6608 18.4779 13.7536 18.1651 13.7536C17.7456 13.7536 17.3432 13.587 17.0466 13.2903C16.7499 12.9937 16.5833 12.5913 16.5833 12.1718Z" fill="black"/>
</svg>
