<svg width="29" height="29" viewBox="0 0 29 29" fill="none" xmlns="http://www.w3.org/2000/svg">
<path d="M22.4939 24.1817V26.5251H6.08984V24.1817H22.4939ZM18.9787 16.2316C18.9402 17.0049 18.7106 17.7566 18.3106 18.4196C17.9105 19.0825 17.3525 19.636 16.6863 20.0306C16.0201 20.4252 15.2666 20.6486 14.4929 20.6809C13.7193 20.7131 12.9498 20.5532 12.2531 20.2155C11.45 19.868 10.769 19.2888 10.2972 18.5519C9.82543 17.815 9.5844 16.954 9.605 16.0793V6.61182H7.26156V16.2316C7.3012 17.3347 7.60001 18.4129 8.13381 19.379C8.6676 20.3451 9.42138 21.172 10.3341 21.7927C11.2469 22.4133 12.2929 22.8104 13.3876 22.9516C14.4823 23.0929 15.5949 22.9744 16.6353 22.6058C18.0192 22.1445 19.2199 21.2538 20.0628 20.0632C20.9058 18.8726 21.3469 17.4441 21.3222 15.9856V6.61182H18.9787V16.2316ZM18.9787 6.60596H21.3222H18.9787ZM9.605 6.60596H7.26156H9.605Z" fill="black"/>
</svg>
