<svg width="29" height="29" viewBox="0 0 29 29" fill="none" xmlns="http://www.w3.org/2000/svg">
<path d="M9.56655 6.6061C8.46543 6.58829 7.39147 6.94841 6.52368 7.62643C5.6559 8.30446 5.04671 9.25943 4.79766 10.3322C4.54677 11.5496 4.78974 12.8168 5.47312 13.855C6.1565 14.8933 7.22433 15.6175 8.4417 15.8685L8.47334 15.8744C8.78878 15.9446 9.11098 15.98 9.43414 15.9798V23.0101H11.7776V8.94953H14.121V23.0101H16.4644V8.94953H18.8079V6.6061H9.56655ZM7.04736 11.293C7.04736 10.6715 7.29425 10.0754 7.73373 9.63591C8.17321 9.19643 8.76927 8.94953 9.39079 8.94953V13.6364C8.76927 13.6364 8.17321 13.3895 7.73373 12.95C7.29425 12.5105 7.04736 11.9145 7.04736 11.293ZM24.5528 21.242C24.5528 21.5896 24.4497 21.9294 24.2566 22.2185C24.0635 22.5075 23.789 22.7328 23.4678 22.8658C23.1467 22.9988 22.7933 23.0336 22.4524 22.9658C22.1114 22.898 21.7982 22.7306 21.5524 22.4848C21.3066 22.239 21.1392 21.9258 21.0714 21.5849C21.0036 21.244 21.0384 20.8906 21.1714 20.5694C21.3045 20.2483 21.5297 19.9738 21.8188 19.7806C22.1078 19.5875 22.4476 19.4844 22.7952 19.4844C23.2614 19.4844 23.7084 19.6696 24.038 19.9992C24.3676 20.3288 24.5528 20.7759 24.5528 21.242ZM24.5528 16.5552C24.5528 16.9028 24.4497 17.2426 24.2566 17.5316C24.0635 17.8206 23.789 18.0459 23.4678 18.1789C23.1467 18.312 22.7933 18.3468 22.4524 18.279C22.1114 18.2111 21.7982 18.0437 21.5524 17.7979C21.3066 17.5521 21.1392 17.239 21.0714 16.898C21.0036 16.5571 21.0384 16.2037 21.1714 15.8826C21.3045 15.5614 21.5297 15.2869 21.8188 15.0938C22.1078 14.9007 22.4476 14.7976 22.7952 14.7976C23.2614 14.7976 23.7084 14.9827 24.038 15.3124C24.3676 15.642 24.5528 16.089 24.5528 16.5552ZM24.5528 11.8683C24.5528 12.2159 24.4497 12.5557 24.2566 12.8447C24.0635 13.1338 23.789 13.359 23.4678 13.4921C23.1467 13.6251 22.7933 13.6599 22.4524 13.5921C22.1114 13.5243 21.7982 13.3569 21.5524 13.1111C21.3066 12.8653 21.1392 12.5521 21.0714 12.2112C21.0036 11.8702 21.0384 11.5168 21.1714 11.1957C21.3045 10.8745 21.5297 10.6 21.8188 10.4069C22.1078 10.2138 22.4476 10.1107 22.7952 10.1107C23.2614 10.1107 23.7084 10.2959 24.038 10.6255C24.3676 10.9551 24.5528 11.4021 24.5528 11.8683Z" fill="black"/>
</svg>
