<svg width="29" height="29" viewBox="0 0 29 29" fill="none" xmlns="http://www.w3.org/2000/svg">
<path d="M19.99 15.9797H12.9597V23.01H10.6162V15.9797H3.58594V13.6363H10.6162V6.60596H12.9597V13.6363H19.99V15.9797ZM25.8486 21.2524C25.8486 21.6 25.7455 21.9398 25.5524 22.2289C25.3592 22.5179 25.0847 22.7432 24.7636 22.8762C24.4424 23.0092 24.089 23.044 23.7481 22.9762C23.4072 22.9084 23.094 22.741 22.8482 22.4952C22.6024 22.2494 22.435 21.9362 22.3672 21.5953C22.2994 21.2544 22.3342 20.901 22.4672 20.5798C22.6002 20.2587 22.8255 19.9842 23.1145 19.7911C23.4036 19.5979 23.7434 19.4948 24.091 19.4948C24.5571 19.4948 25.0042 19.68 25.3338 20.0096C25.6634 20.3392 25.8486 20.7863 25.8486 21.2524ZM25.8486 16.5656C25.8486 16.9132 25.7455 17.253 25.5524 17.542C25.3592 17.831 25.0847 18.0563 24.7636 18.1893C24.4424 18.3224 24.089 18.3572 23.7481 18.2894C23.4072 18.2215 23.094 18.0541 22.8482 17.8083C22.6024 17.5625 22.435 17.2494 22.3672 16.9084C22.2994 16.5675 22.3342 16.2141 22.4672 15.893C22.6002 15.5718 22.8255 15.2973 23.1145 15.1042C23.4036 14.9111 23.7434 14.808 24.091 14.808C24.5571 14.808 25.0042 14.9931 25.3338 15.3228C25.6634 15.6524 25.8486 16.0994 25.8486 16.5656ZM25.8486 11.8787C25.8486 12.2263 25.7455 12.5661 25.5524 12.8551C25.3592 13.1442 25.0847 13.3694 24.7636 13.5025C24.4424 13.6355 24.089 13.6703 23.7481 13.6025C23.4072 13.5347 23.094 13.3673 22.8482 13.1215C22.6024 12.8757 22.435 12.5625 22.3672 12.2216C22.2994 11.8806 22.3342 11.5272 22.4672 11.2061C22.6002 10.8849 22.8255 10.6104 23.1145 10.4173C23.4036 10.2242 23.7434 10.1211 24.091 10.1211C24.5571 10.1211 25.0042 10.3063 25.3338 10.6359C25.6634 10.9655 25.8486 11.4125 25.8486 11.8787Z" fill="black"/>
</svg>
