<svg width="29" height="29" viewBox="0 0 29 29" fill="none" xmlns="http://www.w3.org/2000/svg">
<path d="M16.351 23.0095H18.6944L12.8358 6.60547H10.4924L4.63379 23.0095H6.97722L8.61763 18.3226H14.5934L16.351 23.0095ZM9.43783 15.9792L11.6641 9.88628L13.8904 15.9792H9.43783ZM24.4358 21.2519C24.4358 21.5995 24.3327 21.9394 24.1396 22.2284C23.9465 22.5174 23.672 22.7427 23.3508 22.8757C23.0297 23.0087 22.6763 23.0436 22.3353 22.9757C21.9944 22.9079 21.6812 22.7405 21.4354 22.4947C21.1896 22.2489 21.0222 21.9358 20.9544 21.5948C20.8866 21.2539 20.9214 20.9005 21.0544 20.5793C21.1875 20.2582 21.4127 19.9837 21.7018 19.7906C21.9908 19.5974 22.3306 19.4944 22.6782 19.4944C23.1444 19.4944 23.5914 19.6795 23.921 20.0091C24.2506 20.3387 24.4358 20.7858 24.4358 21.2519ZM24.4358 16.5651C24.4358 16.9127 24.3327 17.2525 24.1396 17.5415C23.9465 17.8306 23.672 18.0558 23.3508 18.1889C23.0297 18.3219 22.6763 18.3567 22.3353 18.2889C21.9944 18.2211 21.6812 18.0537 21.4354 17.8079C21.1896 17.5621 21.0222 17.2489 20.9544 16.908C20.8866 16.567 20.9214 16.2136 21.0544 15.8925C21.1875 15.5713 21.4127 15.2968 21.7018 15.1037C21.9908 14.9106 22.3306 14.8075 22.6782 14.8075C23.1444 14.8075 23.5914 14.9927 23.921 15.3223C24.2506 15.6519 24.4358 16.0989 24.4358 16.5651ZM24.4358 11.8782C24.4358 12.2258 24.3327 12.5656 24.1396 12.8547C23.9465 13.1437 23.672 13.369 23.3508 13.502C23.0297 13.635 22.6763 13.6698 22.3353 13.602C21.9944 13.5342 21.6812 13.3668 21.4354 13.121C21.1896 12.8752 21.0222 12.562 20.9544 12.2211C20.8866 11.8801 20.9214 11.5268 21.0544 11.2056C21.1875 10.8844 21.4127 10.6099 21.7018 10.4168C21.9908 10.2237 22.3306 10.1206 22.6782 10.1206C23.1444 10.1206 23.5914 10.3058 23.921 10.6354C24.2506 10.965 24.4358 11.4121 24.4358 11.8782Z" fill="black"/>
</svg>
