<svg width="29" height="29" viewBox="0 0 29 29" fill="none" xmlns="http://www.w3.org/2000/svg">
<path d="M15.9497 20.6666C15.9497 21.604 15.1295 22.4242 14.1921 22.4242C13.2548 22.4242 12.4346 21.604 12.4346 20.6666C12.4346 19.7293 13.2548 18.9091 14.1921 18.9091C15.1295 18.9091 15.9497 19.7293 15.9497 20.6666ZM15.9497 14.8081C15.9497 15.7454 15.1295 16.5656 14.1921 16.5656C13.2548 16.5656 12.4346 15.7454 12.4346 14.8081C12.4346 13.8707 13.2548 13.0505 14.1921 13.0505C15.1295 13.0505 15.9497 13.8707 15.9497 14.8081ZM15.9497 8.94947C15.9497 9.88684 15.1295 10.707 14.1921 10.707C13.2548 10.707 12.4346 9.88684 12.4346 8.94947C12.4346 8.0121 13.2548 7.19189 14.1921 7.19189C15.1295 7.19189 15.9497 8.0121 15.9497 8.94947Z" fill="black"/>
</svg>
