<svg width="6" height="10" viewBox="0 0 6 10" fill="none" xmlns="http://www.w3.org/2000/svg">
<path d="M1.91663 9.41663L5.74996 5.58329C5.83329 5.49996 5.89218 5.40968 5.92663 5.31246C5.96163 5.21524 5.97913 5.11107 5.97913 4.99996C5.97913 4.88885 5.96163 4.78468 5.92663 4.68746C5.89218 4.59024 5.83329 4.49996 5.74996 4.41663L1.91663 0.583292C1.76385 0.430515 1.5694 0.354126 1.33329 0.354126C1.09718 0.354126 0.902737 0.430515 0.749959 0.583292C0.597181 0.73607 0.520792 0.930515 0.520792 1.16663C0.520792 1.40274 0.597181 1.59718 0.749959 1.74996L3.99996 4.99996L0.749959 8.24996C0.597181 8.40274 0.520792 8.59718 0.520792 8.83329C0.520792 9.0694 0.597181 9.26385 0.749959 9.41663C0.902737 9.5694 1.09718 9.64579 1.33329 9.64579C1.5694 9.64579 1.76385 9.5694 1.91663 9.41663Z" fill="#586A84"/>
</svg>
