<svg width="6" height="10" viewBox="0 0 6 10" fill="none" xmlns="http://www.w3.org/2000/svg">
<path d="M5.74996 9.41663C5.90274 9.26385 5.97913 9.0694 5.97913 8.83329C5.97913 8.59718 5.90274 8.40274 5.74996 8.24996L2.49996 4.99996L5.74996 1.74996C5.90274 1.59718 5.97913 1.40274 5.97913 1.16663C5.97913 0.930515 5.90274 0.73607 5.74996 0.583292C5.59718 0.430515 5.40274 0.354126 5.16663 0.354126C4.93052 0.354126 4.73607 0.430515 4.58329 0.583292L0.74996 4.41663C0.666626 4.49996 0.60746 4.59024 0.57246 4.68746C0.538015 4.78468 0.520792 4.88885 0.520792 4.99996C0.520792 5.11107 0.538015 5.21524 0.57246 5.31246C0.60746 5.40968 0.666626 5.49996 0.74996 5.58329L4.58329 9.41663C4.73607 9.5694 4.93052 9.64579 5.16663 9.64579C5.40274 9.64579 5.59718 9.5694 5.74996 9.41663Z" fill="#586A84"/>
</svg>
