<svg width="12" height="12" viewBox="0 0 12 12" fill="none" xmlns="http://www.w3.org/2000/svg">
<path d="M5.53329 10.8667C5.41107 10.7445 5.34707 10.589 5.34129 10.4001C5.33596 10.2112 5.3944 10.0556 5.51663 9.93341L8.78329 6.66674H1.33329C1.1444 6.66674 0.985959 6.60274 0.857959 6.47474C0.730404 6.34718 0.666626 6.18896 0.666626 6.00007C0.666626 5.81118 0.730404 5.65274 0.857959 5.52474C0.985959 5.39718 1.1444 5.33341 1.33329 5.33341H8.78329L5.51663 2.06674C5.3944 1.94452 5.33596 1.78896 5.34129 1.60007C5.34707 1.41118 5.41107 1.25563 5.53329 1.13341C5.65552 1.01118 5.81107 0.950073 5.99996 0.950073C6.18885 0.950073 6.3444 1.01118 6.46663 1.13341L10.8666 5.53341C10.9333 5.58896 10.9806 5.6583 11.0086 5.74141C11.0362 5.82496 11.05 5.91118 11.05 6.00007C11.05 6.08896 11.0362 6.1723 11.0086 6.25007C10.9806 6.32785 10.9333 6.40007 10.8666 6.46674L6.46663 10.8667C6.3444 10.989 6.18885 11.0501 5.99996 11.0501C5.81107 11.0501 5.65552 10.989 5.53329 10.8667Z" fill="white"/>
</svg>
