<svg width="16" height="16" viewBox="0 0 16 16" fill="none" xmlns="http://www.w3.org/2000/svg">
<mask id="mask0_453_2789" style="mask-type:alpha" maskUnits="userSpaceOnUse" x="0" y="0" width="16" height="16">
<rect width="16" height="16" fill="#D9D9D9"/>
</mask>
<g mask="url(#mask0_453_2789)">
<path d="M7.53317 12.8669C7.41095 12.7446 7.34695 12.5891 7.34117 12.4002C7.33584 12.2113 7.39428 12.0558 7.5165 11.9335L10.7832 8.66686H3.33317C3.14428 8.66686 2.98584 8.60286 2.85784 8.47486C2.73028 8.34731 2.6665 8.18908 2.6665 8.0002C2.6665 7.81131 2.73028 7.65286 2.85784 7.52486C2.98584 7.39731 3.14428 7.33353 3.33317 7.33353H10.7832L7.5165 4.06686C7.39428 3.94464 7.33584 3.78908 7.34117 3.6002C7.34695 3.41131 7.41095 3.25575 7.53317 3.13353C7.65539 3.01131 7.81095 2.9502 7.99984 2.9502C8.18873 2.9502 8.34428 3.01131 8.4665 3.13353L12.8665 7.53353C12.9332 7.58908 12.9805 7.65842 13.0085 7.74153C13.0361 7.82508 13.0498 7.91131 13.0498 8.0002C13.0498 8.08908 13.0361 8.17242 13.0085 8.2502C12.9805 8.32797 12.9332 8.4002 12.8665 8.46686L8.4665 12.8669C8.34428 12.9891 8.18873 13.0502 7.99984 13.0502C7.81095 13.0502 7.65539 12.9891 7.53317 12.8669Z" fill="white"/>
</g>
</svg>
