<svg width="35" height="35" viewBox="0 0 35 35" fill="none" xmlns="http://www.w3.org/2000/svg">
<path d="M35 17.4984C35 27.1634 27.167 35 17.502 35V35C7.837 35 0 27.169 0 17.504V17.504C0 7.83902 7.833 0 17.498 0V0C27.163 0 35 7.83341 35 17.4984V17.4984ZM11.6481 27.6834C13.2441 27.6834 14.5431 26.3896 14.5431 24.7936C14.5431 19.9318 14.5431 15.0686 14.5431 10.2051C14.5431 8.60911 13.2437 7.31529 11.6477 7.31529V7.31529C10.0517 7.31529 8.76351 8.60912 8.76351 10.2051C8.76351 15.0725 8.76351 19.93 8.76351 24.7936C8.76351 26.3896 10.0521 27.6834 11.6481 27.6834V27.6834ZM23.342 27.6864C24.9381 27.6864 26.2287 26.3925 26.2287 24.7964C26.2287 19.9199 26.2287 15.0612 26.2287 10.202C26.2287 8.60597 24.9289 7.3121 23.3328 7.3121V7.3121C21.7368 7.3121 20.4488 8.60599 20.4488 10.2021C20.4488 15.0729 20.4488 19.9344 20.4488 24.7964C20.4488 26.3925 21.746 27.6864 23.342 27.6864V27.6864Z" fill="#959595"/>
<path d="M14.5431 24.7941C14.5431 26.3901 13.244 27.6839 11.648 27.6839V27.6839C10.052 27.6839 8.76349 26.3901 8.76349 24.7941C8.76349 19.9305 8.76349 15.073 8.76349 10.2056C8.76349 8.60961 10.0516 7.31578 11.6476 7.31578V7.31578C13.2436 7.31578 14.5431 8.6096 14.5431 10.2056C14.5431 15.0691 14.5431 19.9323 14.5431 24.7941Z" fill="white"/>
<path d="M26.2284 24.7964C26.2284 26.3924 24.9378 27.6863 23.3417 27.6863V27.6863C21.7456 27.6863 20.4485 26.3925 20.4485 24.7964C20.4485 19.9344 20.4485 15.0729 20.4485 10.2021C20.4485 8.60598 21.7365 7.31209 23.3325 7.31209V7.31209C24.9286 7.31209 26.2284 8.60596 26.2284 10.202C26.2284 15.0612 26.2284 19.9199 26.2284 24.7964Z" fill="white"/>
</svg>
