<svg width="20" height="20" viewBox="0 0 20 20" fill="none" xmlns="http://www.w3.org/2000/svg">
<mask id="mask0_74_2691" style="mask-type:alpha" maskUnits="userSpaceOnUse" x="0" y="0" width="20" height="20">
<rect width="20" height="20" transform="matrix(-1 0 0 1 20 0)" fill="#D9D9D9"/>
</mask>
<g mask="url(#mask0_74_2691)">
<path d="M8.91663 14.4166L12.75 10.5833C12.8333 10.5 12.8922 10.4097 12.9266 10.3125C12.9616 10.2152 12.9791 10.1111 12.9791 9.99996C12.9791 9.88885 12.9616 9.78468 12.9266 9.68746C12.8922 9.59024 12.8333 9.49996 12.75 9.41663L8.91663 5.58329C8.76385 5.43051 8.5694 5.35413 8.33329 5.35413C8.09718 5.35413 7.90274 5.43051 7.74996 5.58329C7.59718 5.73607 7.52079 5.93051 7.52079 6.16663C7.52079 6.40274 7.59718 6.59718 7.74996 6.74996L11 9.99996L7.74996 13.25C7.59718 13.4027 7.52079 13.5972 7.52079 13.8333C7.52079 14.0694 7.59718 14.2638 7.74996 14.4166C7.90274 14.5694 8.09718 14.6458 8.33329 14.6458C8.5694 14.6458 8.76385 14.5694 8.91663 14.4166Z" fill="#586A84"/>
</g>
</svg>
