<svg width="20" height="20" viewBox="0 0 20 20" fill="none" xmlns="http://www.w3.org/2000/svg">
<mask id="mask0_74_2688" style="mask-type:alpha" maskUnits="userSpaceOnUse" x="0" y="0" width="20" height="20">
<rect width="20" height="20" transform="matrix(-1 0 0 1 20 0)" fill="#D9D9D9"/>
</mask>
<g mask="url(#mask0_74_2688)">
<path d="M12.75 14.4166C12.9027 14.2638 12.9791 14.0694 12.9791 13.8333C12.9791 13.5972 12.9027 13.4027 12.75 13.25L9.49996 9.99996L12.75 6.74996C12.9027 6.59718 12.9791 6.40274 12.9791 6.16663C12.9791 5.93051 12.9027 5.73607 12.75 5.58329C12.5972 5.43051 12.4027 5.35413 12.1666 5.35413C11.9305 5.35413 11.7361 5.43051 11.5833 5.58329L7.74996 9.41663C7.66663 9.49996 7.60746 9.59024 7.57246 9.68746C7.53801 9.78468 7.52079 9.88885 7.52079 9.99996C7.52079 10.1111 7.53801 10.2152 7.57246 10.3125C7.60746 10.4097 7.66663 10.5 7.74996 10.5833L11.5833 14.4166C11.7361 14.5694 11.9305 14.6458 12.1666 14.6458C12.4027 14.6458 12.5972 14.5694 12.75 14.4166Z" fill="#586A84"/>
</g>
</svg>
